<svg width="849" height="91" viewBox="0 0 849 91" fill="none" xmlns="http://www.w3.org/2000/svg">
<path d="M417.081 26.268L416.059 32.644C412.125 28.21 406.063 25.022 396.566 25.022C379.571 25.022 367.515 37.9537 367.515 56.1894C367.515 74.4251 379.571 87.4859 396.566 87.4859C405.372 87.4859 412.057 84.4887 416.059 79.8638L417.081 86.2343H432.111V26.268H417.081ZM399.878 73.123C390.319 73.123 383.634 65.6244 383.634 56.1277C383.634 46.6309 390.319 39.3905 399.878 39.3905C409.436 39.3905 416.177 46.5748 416.177 56.1277C416.177 65.6805 409.307 73.123 399.878 73.123Z" fill="black"/>
<path d="M485.304 37.8918V26.2678H438.954V39.6373H467L438.639 74.6831V86.2398H487.178V72.8703H456.942L485.304 37.8918Z" fill="black"/>
<path d="M537.642 0.000488281V33.5252C533.657 28.5299 527.467 25.022 517.858 25.022C500.862 25.022 488.801 37.9537 488.801 56.1838C488.801 74.4139 500.862 87.4803 517.858 87.4803C526.658 87.4803 533.332 84.4831 537.339 79.8751L538.355 86.2455H553.403V0.000488281H537.642ZM521.158 73.1118C511.605 73.1118 504.909 65.63 504.909 56.1164C504.909 46.6029 511.605 39.3849 521.158 39.3849C530.711 39.3849 537.457 46.5692 537.457 56.1164C537.457 65.6637 530.604 73.1118 521.158 73.1118Z" fill="black"/>
<path d="M609.053 26.268L608.02 32.644C604.086 28.21 598.024 25.022 588.527 25.022C571.532 25.022 559.476 37.9537 559.476 56.1894C559.476 74.4251 571.532 87.4859 588.527 87.4859C597.334 87.4859 604.018 84.4887 608.02 79.8638L609.053 86.2343H624.078V26.268H609.053ZM591.844 73.123C582.286 73.123 575.601 65.6244 575.601 56.1277C575.601 46.6309 582.286 39.3905 591.844 39.3905C601.403 39.3905 608.144 46.5748 608.144 56.1277C608.144 65.6805 601.274 73.123 591.844 73.123Z" fill="black"/>
<path d="M665.786 25.022C656.851 25.022 650.418 29.0182 647.298 33.2053L646.271 26.2736H631.745V86.2455H647.736V52.6983C647.736 44.3915 653.983 39.8901 661.043 39.8901C668.104 39.8901 673.475 44.3859 673.475 52.6983V86.2455H689.466V48.5785C689.466 34.1482 679.661 25.0276 665.792 25.0276L665.786 25.022Z" fill="black"/>
<path d="M257.663 0.000244141H273.429V63.3959L317.124 0.000244141H329.758V63.3959L373.464 0.000244141H391.756L331.633 86.2453L314.02 86.2397V30.7131L275.303 86.2453H257.663V0.000244141Z" fill="black"/>
<path d="M230.582 0H9.34553C1.03659 0 -3.12418 10.1009 2.74887 16.01L69.3508 82.9728C75.2449 88.8988 84.7949 88.8988 90.689 82.9728L137.438 35.9707C143.054 30.3238 152.663 34.321 152.663 42.3112V76.26C152.663 86.2424 164.666 91.2379 171.683 84.1825L237.852 17.6554C244.331 11.1414 239.741 0.00423398 230.582 0.00423398V0Z" fill="url(#paint0_linear_999_405)"/>
<path d="M719.615 51.7762C717.266 51.7762 715.196 51.1386 713.407 49.8635C711.617 48.5884 710.398 46.9329 709.749 44.8972L713.105 43.4879C713.686 45.0314 714.559 46.2171 715.722 47.0448C716.885 47.8725 718.239 48.2864 719.782 48.2864C721.102 48.2864 722.165 47.9844 722.97 47.3804C723.798 46.754 724.212 45.9263 724.212 44.8972C724.212 44.0024 723.955 43.2865 723.44 42.7496C722.948 42.2127 722.198 41.7877 721.192 41.4745L716.46 39.998C714.604 39.4164 713.183 38.5327 712.199 37.3471C711.214 36.1391 710.722 34.7185 710.722 33.0855C710.722 31.7209 711.058 30.5017 711.729 29.4279C712.422 28.3317 713.384 27.4816 714.615 26.8776C715.845 26.2736 717.243 25.9716 718.809 25.9716C721.002 25.9716 722.926 26.542 724.581 27.683C726.236 28.8239 727.377 30.3115 728.004 32.1459L724.715 33.5553C724.223 32.2578 723.451 31.2511 722.4 30.5352C721.371 29.8194 720.174 29.4614 718.809 29.4614C717.557 29.4614 716.55 29.7746 715.789 30.401C715.029 31.0274 714.648 31.8551 714.648 32.8841C714.648 33.7119 714.906 34.4389 715.42 35.0653C715.957 35.6693 716.74 36.1279 717.769 36.4411L722.131 37.8169C724.145 38.4433 725.644 39.3157 726.628 40.4343C727.635 41.5528 728.138 42.951 728.138 44.6288C728.138 46.0157 727.78 47.2573 727.064 48.3535C726.348 49.4273 725.342 50.2662 724.044 50.8702C722.747 51.4742 721.27 51.7762 719.615 51.7762ZM740.737 51.7762C738.97 51.7762 737.381 51.3623 735.972 50.5346C734.563 49.6845 733.455 48.5325 732.65 47.0784C731.867 45.6243 731.475 44.0136 731.475 42.2463C731.475 40.4566 731.867 38.8459 732.65 37.4142C733.433 35.9825 734.495 34.864 735.838 34.0586C737.202 33.2309 738.724 32.817 740.401 32.817C742.169 32.817 743.712 33.2197 745.032 34.025C746.352 34.808 747.359 35.8706 748.052 37.2129C748.746 38.5551 749.092 40.0204 749.092 41.6087C749.092 42.347 749.036 42.9398 748.925 43.3872H735.435C735.525 44.886 736.073 46.1052 737.079 47.0448C738.086 47.962 739.316 48.4206 740.77 48.4206C741.822 48.4206 742.728 48.1857 743.488 47.7159C744.271 47.2461 744.909 46.5974 745.401 45.7697L748.488 47.2797C747.929 48.5996 746.945 49.6845 745.535 50.5346C744.148 51.3623 742.549 51.7762 740.737 51.7762ZM745.066 40.3671C744.976 39.092 744.495 38.0518 743.623 37.2464C742.75 36.4187 741.676 36.0049 740.401 36.0049C739.171 36.0049 738.097 36.3963 737.18 37.1793C736.285 37.9623 735.726 39.0249 735.502 40.3671H745.066ZM752.793 33.2197H756.417V35.5686C757.289 33.8461 758.9 32.9848 761.249 32.9848H762.356V36.4411H760.779C759.504 36.4411 758.486 36.8438 757.726 37.6491C756.965 38.4321 756.585 39.5171 756.585 40.904V51.3735H752.793V33.2197ZM763.105 33.2197H767.232L771.964 45.971L776.662 33.2197H780.822L773.675 51.3735H770.219L763.105 33.2197ZM783.4 33.2197H787.192V51.3735H783.4V33.2197ZM785.312 31.005C784.641 31.005 784.071 30.7813 783.601 30.3339C783.131 29.8865 782.896 29.316 782.896 28.6225C782.896 27.9067 783.131 27.325 783.601 26.8776C784.071 26.4302 784.641 26.2065 785.312 26.2065C785.961 26.2065 786.52 26.4302 786.99 26.8776C787.46 27.325 787.695 27.9067 787.695 28.6225C787.695 29.316 787.46 29.8865 786.99 30.3339C786.52 30.7813 785.961 31.005 785.312 31.005ZM800.249 51.7762C798.459 51.7762 796.848 51.3623 795.417 50.5346C794.007 49.7069 792.9 48.566 792.095 47.1119C791.289 45.6578 790.887 44.0359 790.887 42.2463C790.887 40.4566 791.289 38.8459 792.095 37.4142C792.9 35.9825 794.007 34.864 795.417 34.0586C796.848 33.2309 798.459 32.817 800.249 32.817C802.083 32.817 803.727 33.2868 805.182 34.2264C806.658 35.166 807.687 36.4075 808.269 37.9511L804.913 39.4611C804.533 38.4992 803.918 37.7386 803.068 37.1793C802.24 36.6201 801.3 36.3404 800.249 36.3404C799.22 36.3404 798.291 36.5977 797.464 37.1122C796.658 37.6267 796.021 38.3426 795.551 39.2598C795.081 40.1546 794.846 41.1613 794.846 42.2798C794.846 43.4207 795.081 44.4498 795.551 45.367C796.021 46.2618 796.658 46.9665 797.464 47.481C798.291 47.9956 799.22 48.2528 800.249 48.2528C801.323 48.2528 802.262 47.9732 803.068 47.4139C803.895 46.8323 804.51 46.0605 804.913 45.0986L808.269 46.6757C807.709 48.1522 806.692 49.3714 805.215 50.3333C803.739 51.2952 802.083 51.7762 800.249 51.7762ZM820.498 51.7762C818.731 51.7762 817.142 51.3623 815.733 50.5346C814.324 49.6845 813.216 48.5325 812.411 47.0784C811.628 45.6243 811.237 44.0136 811.237 42.2463C811.237 40.4566 811.628 38.8459 812.411 37.4142C813.194 35.9825 814.257 34.864 815.599 34.0586C816.964 33.2309 818.485 32.817 820.163 32.817C821.93 32.817 823.473 33.2197 824.793 34.025C826.113 34.808 827.12 35.8706 827.813 37.2129C828.507 38.5551 828.854 40.0204 828.854 41.6087C828.854 42.347 828.798 42.9398 828.686 43.3872H815.196C815.286 44.886 815.834 46.1052 816.84 47.0448C817.847 47.962 819.078 48.4206 820.532 48.4206C821.583 48.4206 822.489 48.1857 823.25 47.7159C824.033 47.2461 824.67 46.5974 825.162 45.7697L828.25 47.2797C827.69 48.5996 826.706 49.6845 825.297 50.5346C823.91 51.3623 822.31 51.7762 820.498 51.7762ZM824.827 40.3671C824.737 39.092 824.256 38.0518 823.384 37.2464C822.511 36.4187 821.438 36.0049 820.163 36.0049C818.932 36.0049 817.858 36.3963 816.941 37.1793C816.046 37.9623 815.487 39.0249 815.263 40.3671H824.827ZM839.265 51.7762C837.409 51.7762 835.776 51.3176 834.366 50.4004C832.979 49.4832 832.006 48.2528 831.447 46.7092L834.366 45.3334C834.858 46.3849 835.529 47.2126 836.38 47.8166C837.252 48.3982 838.214 48.689 839.265 48.689C840.16 48.689 840.887 48.4877 841.447 48.085C842.006 47.66 842.285 47.1119 842.285 46.4408C842.285 45.8592 842.062 45.4006 841.614 45.065C841.167 44.7294 840.585 44.461 839.869 44.2596L837.017 43.4543C835.474 43.0293 834.299 42.3693 833.494 41.4745C832.711 40.5797 832.319 39.5171 832.319 38.2867C832.319 37.2129 832.599 36.2621 833.158 35.4344C833.717 34.6067 834.489 33.9691 835.474 33.5217C836.458 33.0519 837.576 32.817 838.829 32.817C840.507 32.817 841.983 33.2309 843.259 34.0586C844.556 34.864 845.473 35.9937 846.01 37.4478L843.057 38.8571C842.699 37.9623 842.14 37.2576 841.379 36.7431C840.619 36.2286 839.758 35.9713 838.796 35.9713C837.968 35.9713 837.308 36.1726 836.816 36.5753C836.324 36.9556 836.078 37.459 836.078 38.0853C836.078 38.667 836.29 39.1256 836.715 39.4611C837.14 39.7743 837.699 40.0316 838.393 40.2329L841.346 41.1054C842.845 41.5528 843.997 42.2239 844.802 43.1187C845.607 44.0136 846.01 45.0874 846.01 46.3401C846.01 47.4139 845.73 48.3647 845.171 49.1924C844.612 49.9977 843.818 50.6353 842.789 51.1051C841.76 51.5525 840.585 51.7762 839.265 51.7762ZM710.857 61.3743H714.816V82.8501H725.621V86.3735H710.857V61.3743ZM728.576 68.2197H732.368V86.3735H728.576V68.2197ZM730.489 66.005C729.818 66.005 729.247 65.7813 728.778 65.3339C728.308 64.8865 728.073 64.316 728.073 63.6225C728.073 62.9067 728.308 62.325 728.778 61.8776C729.247 61.4302 729.818 61.2065 730.489 61.2065C731.138 61.2065 731.697 61.4302 732.167 61.8776C732.637 62.325 732.871 62.9067 732.871 63.6225C732.871 64.316 732.637 64.8865 732.167 65.3339C731.697 65.7813 731.138 66.005 730.489 66.005ZM736.801 68.2197H740.425V70.468C740.918 69.5955 741.6 68.9356 742.472 68.4882C743.367 68.0407 744.374 67.817 745.492 67.817C746.723 67.817 747.841 68.0967 748.848 68.6559C749.855 69.1928 750.626 69.9422 751.163 70.9042C751.767 69.8975 752.55 69.1369 753.512 68.6224C754.497 68.0855 755.604 67.817 756.834 67.817C758.087 67.817 759.228 68.1078 760.257 68.6895C761.286 69.2711 762.091 70.0877 762.673 71.1391C763.277 72.1681 763.579 73.3314 763.579 74.6289V86.3735H759.787V75.6692C759.787 74.3493 759.429 73.2979 758.714 72.5149C758.02 71.7319 757.103 71.3404 755.962 71.3404C754.799 71.3404 753.859 71.7319 753.143 72.5149C752.427 73.2979 752.069 74.3493 752.069 75.6692V86.3735H748.278V75.6692C748.278 74.3493 747.92 73.2979 747.204 72.5149C746.51 71.7319 745.593 71.3404 744.452 71.3404C743.311 71.3404 742.383 71.7319 741.667 72.5149C740.951 73.2979 740.593 74.3493 740.593 75.6692V86.3735H736.801V68.2197ZM767.638 68.2197H771.429V86.3735H767.638V68.2197ZM769.55 66.005C768.879 66.005 768.309 65.7813 767.839 65.3339C767.369 64.8865 767.134 64.316 767.134 63.6225C767.134 62.9067 767.369 62.325 767.839 61.8776C768.309 61.4302 768.879 61.2065 769.55 61.2065C770.199 61.2065 770.758 61.4302 771.228 61.8776C771.698 62.325 771.933 62.9067 771.933 63.6225C771.933 64.316 771.698 64.8865 771.228 65.3339C770.758 65.7813 770.199 66.005 769.55 66.005ZM783.715 86.5749C781.813 86.5749 780.337 86.038 779.285 84.9642C778.234 83.8904 777.708 82.3804 777.708 80.4341V71.676H774.487V68.2197H774.99C775.84 68.2197 776.5 67.9736 776.97 67.4815C777.462 66.9893 777.708 66.3182 777.708 65.4681V64.0588H781.5V68.2197H785.628V71.676H781.5V80.2663C781.5 82.235 782.507 83.2193 784.52 83.2193C784.923 83.2193 785.337 83.1857 785.762 83.1186V86.3735C784.956 86.5078 784.274 86.5749 783.715 86.5749ZM797.658 86.7762C795.89 86.7762 794.302 86.3623 792.893 85.5346C791.483 84.6845 790.376 83.5325 789.571 82.0784C788.788 80.6243 788.396 79.0136 788.396 77.2463C788.396 75.4566 788.788 73.8459 789.571 72.4142C790.354 70.9825 791.416 69.864 792.758 69.0586C794.123 68.2309 795.644 67.817 797.322 67.817C799.089 67.817 800.633 68.2197 801.953 69.025C803.273 69.808 804.279 70.8706 804.973 72.2129C805.666 73.5551 806.013 75.0204 806.013 76.6087C806.013 77.347 805.957 77.9398 805.845 78.3872H792.356C792.445 79.886 792.993 81.1052 794 82.0448C795.007 82.962 796.237 83.4206 797.691 83.4206C798.743 83.4206 799.649 83.1857 800.409 82.7159C801.192 82.2461 801.83 81.5974 802.322 80.7697L805.409 82.2797C804.85 83.5996 803.866 84.6845 802.456 85.5346C801.069 86.3623 799.47 86.7762 797.658 86.7762ZM801.986 75.3671C801.897 74.092 801.416 73.0518 800.543 72.2464C799.671 71.4187 798.597 71.0049 797.322 71.0049C796.092 71.0049 795.018 71.3963 794.101 72.1793C793.206 72.9623 792.647 74.0249 792.423 75.3671H801.986ZM818.069 86.7762C816.369 86.7762 814.825 86.3623 813.438 85.5346C812.051 84.6845 810.955 83.5436 810.15 82.1119C809.367 80.6578 808.976 79.0471 808.976 77.2798C808.976 75.5126 809.367 73.913 810.15 72.4813C810.955 71.0272 812.051 69.8863 813.438 69.0586C814.825 68.2309 816.369 67.817 818.069 67.817C819.3 67.817 820.418 68.0296 821.425 68.4546C822.431 68.8796 823.282 69.4948 823.975 70.3002V60.9716H827.767V86.3735H824.143V84.0582C823.472 84.9306 822.599 85.6017 821.525 86.0715C820.474 86.5413 819.322 86.7762 818.069 86.7762ZM818.472 83.2528C819.501 83.2528 820.429 82.9956 821.257 82.481C822.107 81.9665 822.767 81.2618 823.237 80.367C823.729 79.4498 823.975 78.4207 823.975 77.2798C823.975 76.1613 823.729 75.1546 823.237 74.2598C822.767 73.3426 822.107 72.6267 821.257 72.1122C820.429 71.5977 819.501 71.3404 818.472 71.3404C817.42 71.3404 816.47 71.5977 815.62 72.1122C814.792 72.6267 814.132 73.3426 813.64 74.2598C813.17 75.1546 812.935 76.1613 812.935 77.2798C812.935 78.4207 813.17 79.4498 813.64 80.367C814.11 81.2618 814.77 81.9665 815.62 82.481C816.47 82.9956 817.42 83.2528 818.472 83.2528Z" fill="black"/>
<defs>
<linearGradient id="paint0_linear_999_405" x1="0" y1="26.3655" x2="240.885" y2="26.3655" gradientUnits="userSpaceOnUse">
<stop stop-color="#FF8112"/>
<stop offset="1" stop-color="#FFDC2B"/>
</linearGradient>
</defs>
</svg>
